<svg xmlns="http://www.w3.org/2000/svg" xmlns:xlink="http://www.w3.org/1999/xlink" version="1.1" x="0px" y="0px" width="350px" height="350px" viewBox="0 0 350 350" enable-background="new 0 0 350 350" xml:space="preserve" xmlns:xml="http://www.w3.org/XML/1998/namespace">

<g>
	<path fill="#F48438" d="M138,346H93c0,0-9,0-9-9s0-18,0-18h63c0,0,0,9,0,18S138,346,138,346z"/>
	<path fill="#F48438" d="M255,346h-45c0,0-9,0-9-9s0-18,0-18h63c0,0,0,9,0,18S255,346,255,346z"/>
	<path fill="#F48438" d="M30,139c0-63,105.099-79.872,143.186-80C210.458,58.875,318,76,318,139c0,0,0,84.71,0,153c0,27-27,27-27,27   H57c0,0-27,0-27-27V139z"/>
	<path fill="#FFFFFF" d="M246,264.056c0,4.643-3.428,8.944-9.12,8.944H112.805c-5.691,0-10.805-4.301-10.805-8.944v-65.15   c0-4.643,5.114-7.906,10.805-7.906H236.88c5.691,0,9.12,3.264,9.12,7.906V264.056z"/>
	<circle fill="#FFFFFF" cx="94.667" cy="141.667" r="20.333"/>
	<circle fill="#FFFFFF" cx="252.667" cy="141.667" r="20.333"/>
	<path fill="#F48438" d="M174.24,45.664c24.69-30.635,70.778-25.601,70.778-25.601l6.603,13.863c0,0-48.596-0.658-62.896,24.075   S149.551,76.3,174.24,45.664z"/>
	<circle fill="#F48438" cx="259.083" cy="24.083" r="21.083"/>
</g>
</svg>